# xmcd
#
# Track frame offsets:
#	150
#	20025
#	39984
#	54234
#	68597
#
# Disc length: 1332 seconds
#
# Revision: 1
# Processed by: cddbd v1.5.2PL0 Copyright (c) Steve Scherf et al.
# Submitted via: audiograbber 1.83.01
#
DISCID=36053205
DTITLE=frank mathis - frank mathis
DYEAR=2004
DGENRE=country
TTITLE0=Don't close your eyes
TTITLE1=Are the good times over for good
TTITLE2=golden Ring
TTITLE3=Whiskey bent and hell bound
TTITLE4=Blues Man
EXTD=this is the only disc frank made before he passed on with cancer
EXTT0=
EXTT1=
EXTT2=
EXTT3=
EXTT4=
PLAYORDER=
